<svg width="427" height="361" viewBox="0 0 427 361" fill="none" xmlns="http://www.w3.org/2000/svg">
<path d="M357.7 0H69.13C50.7956 0 33.2121 7.28331 20.2477 20.2477C7.28332 33.2121 0 50.7956 0 69.13L0 230.85C0.00346863 247.683 6.14776 263.937 17.2805 276.562C28.4133 289.188 43.7698 297.319 60.47 299.43H61.76V346.43C61.7621 348.999 62.447 351.521 63.7445 353.737C65.0419 355.954 66.9054 357.786 69.1439 359.046C71.3825 360.306 73.9156 360.948 76.4839 360.906C79.0522 360.865 81.5633 360.141 83.76 358.81L180.54 300H357.7C376.035 299.997 393.619 292.712 406.583 279.746C419.547 266.78 426.83 249.195 426.83 230.86V69.13C426.83 50.7956 419.547 33.2121 406.582 20.2477C393.618 7.28331 376.034 0 357.7 0Z" fill="#FFC82B"/>
<path d="M223.225 153.891C223.225 153.891 223.311 154.107 223.485 154.539V155.058C223.485 155.404 223.485 155.75 223.485 156.096C223.485 156.442 223.398 156.615 223.225 156.615H222.706C222.706 156.788 222.62 156.961 222.448 157.134C222.101 157.134 221.799 157.437 221.538 158.042C221.367 158.647 221.107 159.426 220.76 160.377C219.896 161.761 219.074 163.706 218.297 166.214C217.518 168.636 216.48 171.446 215.183 174.646C212.675 181.045 209.777 189.045 206.491 198.644C206.146 200.028 205.713 201.238 205.194 202.277C204.763 203.313 204.373 204.568 204.027 206.038C203.335 207.077 202.772 208.287 202.34 209.671C201.909 210.968 201.433 212.394 200.914 213.951C200.567 214.99 200.049 216.2 199.357 217.584C198.752 218.881 198.189 220.351 197.671 221.993C196.979 223.032 196.374 224.242 195.854 225.626C195.335 226.923 194.688 228.351 193.909 229.906L192.092 233.67C191.747 234.533 191.271 235.311 190.666 236.003C190.061 236.695 189.585 237.345 189.24 237.95C188.893 238.295 188.546 238.642 188.201 238.987C187.941 239.333 187.638 239.678 187.293 240.025L186.775 241.062H185.996C185.996 241.235 185.91 241.409 185.736 241.582H185.218C185.044 241.582 184.958 241.927 184.958 242.619H184.439H184.179H183.661H183.271H182.753H181.974H181.714H180.938C180.591 242.619 180.417 242.446 180.417 242.101C180.417 241.754 180.331 241.582 180.159 241.582C179.812 241.582 179.554 241.496 179.38 241.322C179.207 241.149 178.947 241.062 178.602 241.062L177.174 238.468C177.174 238.123 177.132 237.905 177.045 237.821C176.958 237.734 176.742 237.387 176.397 236.782C176.397 236.437 176.353 236.09 176.266 235.745C176.18 235.398 176.137 235.053 176.137 234.706C175.79 234.706 175.619 234.361 175.619 233.67V233.149C175.445 233.149 175.359 232.978 175.359 232.631V232.112C175.359 231.247 175.359 230.729 175.359 230.555C175.359 230.469 175.185 230.253 174.84 229.906V228.869V228.351V222.513V219.27C175.185 218.231 175.359 217.108 175.359 215.898C175.359 214.601 175.445 213.433 175.619 212.394C175.964 210.232 176.18 208.201 176.266 206.299C176.353 204.31 176.569 202.277 176.916 200.201C177.608 192.244 178.689 184.244 180.159 176.203C180.504 172.138 180.938 168.074 181.456 164.009C181.974 159.945 182.58 155.88 183.271 151.815C183.618 147.751 184.05 143.6 184.568 139.362C185.173 135.125 185.649 130.974 185.996 126.909C186.341 122.672 186.644 118.521 186.904 114.456C187.162 110.305 187.293 105.938 187.293 101.354C187.293 97.2898 187.162 93.3982 186.904 89.6796C186.644 85.961 186.255 82.7612 185.736 80.0804C185.391 78.5236 185.002 77.0968 184.568 75.7995C184.137 74.4158 183.532 73.2052 182.753 72.1674C181.714 70.6108 180.159 69.0109 178.083 67.3677H176.397C176.397 67.0218 176.353 66.8489 176.266 66.8489C176.18 66.8489 176.137 66.7624 176.137 66.5895V66.3299H175.359H173.801H172.115H170.558H168.484C168.311 66.3299 168.095 66.503 167.835 66.8489C167.575 67.1948 167.272 67.3677 166.927 67.3677C166.407 67.3677 165.846 67.5407 165.241 67.8867H163.684C163.511 68.4054 163.295 68.7082 163.035 68.7947C162.776 68.8812 162.474 69.0973 162.127 69.4432C161.435 69.4432 160.872 69.7891 160.441 70.481C160.267 70.481 160.051 70.5675 159.793 70.7405C159.533 70.9134 159.23 70.9999 158.884 70.9999C158.365 71.5187 157.889 71.9945 157.457 72.4268C157.026 72.7727 156.463 73.2052 155.771 73.7239C155.253 74.07 154.733 74.5457 154.214 75.151C153.782 75.7563 153.22 76.3616 152.528 76.9671C150.539 78.9561 148.55 80.9884 146.561 83.064C144.658 85.1395 142.842 87.5176 141.113 90.1984C139.124 92.7064 137.308 95.4305 135.664 98.3708C134.108 101.225 132.551 104.165 130.995 107.192C129.438 109.873 127.838 112.727 126.195 115.753C124.638 118.694 123.038 121.677 121.395 124.704C120.012 127.385 118.585 130.195 117.115 133.136C115.731 135.99 114.261 138.671 112.704 141.178C111.32 144.205 109.937 146.973 108.553 149.481C107.256 151.902 105.872 154.453 104.402 157.134C103.018 159.642 101.591 162.063 100.121 164.398C98.7374 166.647 97.3537 168.852 95.9701 171.014C93.2892 176.116 90.7813 180.527 88.4464 184.244C87.7545 185.11 87.1492 186.104 86.6302 187.23C86.1114 188.266 85.5059 189.218 84.8141 190.084C84.4682 191.12 83.9926 192.115 83.3873 193.067C82.8683 193.93 82.263 195.056 81.5711 196.439C79.4091 199.985 77.4201 203.271 75.6042 206.299C73.788 209.324 71.9719 212.049 70.1558 214.47C68.5992 217.497 67.2587 219.962 66.1344 221.864C64.9238 223.681 63.886 225.323 63.0212 226.794C62.3293 227.659 61.8537 228.264 61.5943 228.609C61.2484 228.956 60.9025 229.387 60.5565 229.906L60.0376 230.426C59.6918 231.81 59.3457 231.81 59 230.426V228.869V228.609C59 228.437 59.0432 228.264 59.1297 228.091C59.216 227.917 59.2594 227.659 59.2594 227.312C59.4323 227.139 59.9512 225.539 60.8159 222.513C61.5078 220.956 62.2861 218.836 63.151 216.156C63.9292 213.475 64.9238 210.276 66.1344 206.557C67.3452 203.358 68.6858 199.812 70.1558 195.921C71.7125 192.028 73.3988 187.964 75.2149 183.726C75.5608 182.342 76.0364 181.132 76.6417 180.093C77.2472 178.97 77.7228 177.673 78.0688 176.203L79.7552 173.089C79.9281 172.225 80.1443 171.619 80.4037 171.273C80.6631 170.841 80.9658 170.192 81.3117 169.328C83.0413 164.571 85.4196 159.815 88.4464 155.058C89.657 152.032 90.8246 149.264 91.9487 146.756C93.1595 144.248 94.4999 141.697 95.9701 139.103C97.3537 136.595 98.824 134.044 100.38 131.449C102.024 128.769 103.623 126.174 105.18 123.666C106.737 120.985 108.38 118.477 110.11 116.142C111.839 113.721 113.655 111.256 115.558 108.748C117.287 106.587 119.104 104.381 121.006 102.133C122.909 99.7978 124.811 97.4195 126.714 94.9981C128.703 93.0091 130.692 90.9336 132.681 88.7715C134.756 86.5232 136.745 84.3611 138.648 82.2856C140.637 79.7776 142.626 77.5724 144.615 75.6698C146.691 73.6808 148.809 71.6052 150.971 69.4432C152.96 66.9354 155.035 64.7734 157.197 62.9573C159.36 61.1411 161.695 59.4115 164.202 57.7685C164.376 57.7685 164.592 57.5956 164.852 57.2497C165.11 56.9037 165.413 56.7307 165.76 56.7307C166.105 56.7307 166.407 56.6442 166.667 56.4713C167.014 56.2982 167.359 56.2119 167.706 56.2119C168.051 55.5201 168.569 55.1742 169.261 55.1742C169.781 54.8282 170.473 54.6552 171.337 54.6552C171.857 53.9633 172.505 53.5742 173.283 53.4877L175.359 52.9688H175.619H176.137H176.916H179.38C180.591 52.9688 181.888 53.358 183.271 54.1364C184.742 54.8282 186.168 55.6929 187.552 56.7307C188.764 58.2874 190.016 60.2333 191.313 62.5682C191.834 63.6059 192.394 64.7734 193.001 66.0705C193.607 67.2813 194.125 68.4054 194.557 69.4432C194.904 70.8269 195.249 72.1242 195.595 73.3349C195.94 74.4591 196.2 75.8428 196.374 77.4859C196.719 78.8696 197.021 80.1236 197.282 81.2478C197.542 82.2856 197.758 83.4962 197.929 84.8799C198.276 87.5609 198.579 90.2849 198.839 93.0523C199.097 95.7331 199.228 98.3276 199.228 100.836C199.4 103.516 199.486 106.068 199.486 108.489C199.486 110.824 199.486 113.245 199.486 115.753C199.313 118.261 199.228 120.639 199.228 122.888C199.228 125.136 199.055 127.515 198.708 130.023C198.536 134.779 198.276 139.535 197.929 144.292C197.584 148.962 197.237 153.588 196.892 158.172C196.545 162.409 196.071 166.733 195.464 171.144C194.859 175.468 194.341 179.662 193.909 183.726C193.391 187.272 192.915 190.644 192.481 193.845C192.049 197.044 191.66 200.201 191.313 203.313C191.66 201.585 192.265 200.375 193.131 199.683C194.341 197.174 195.464 194.927 196.503 192.936C197.627 190.86 198.839 188.829 200.136 186.84C202.124 183.121 204.071 179.662 205.973 176.463C207.875 173.176 209.648 170.279 211.292 167.771C212.847 164.744 214.275 162.323 215.572 160.507C216.956 158.604 218.166 156.961 219.205 155.577C219.723 155.231 220.199 154.885 220.631 154.539C221.064 154.107 221.452 153.891 221.799 153.891H222.448H222.706H223.225Z" fill="black" fill-opacity="0.86"/>
<path d="M357.73 130.541C357.73 130.541 357.816 130.758 357.99 131.19V131.709C357.99 132.055 357.99 132.401 357.99 132.747C357.99 133.093 357.903 133.265 357.73 133.265H357.211C357.211 133.438 357.124 133.611 356.953 133.784C356.606 133.784 356.303 134.087 356.043 134.692C355.872 135.298 355.612 136.076 355.265 137.027C354.401 138.411 353.579 140.357 352.802 142.865C352.023 145.286 350.985 148.097 349.688 151.297C347.18 157.696 344.282 165.695 340.996 175.294C340.651 176.678 340.218 177.888 339.699 178.927C339.268 179.964 338.878 181.218 338.531 182.689C337.84 183.727 337.277 184.938 336.845 186.321C336.414 187.618 335.938 189.044 335.419 190.602C335.072 191.64 334.554 192.851 333.862 194.234C333.257 195.531 332.694 197.002 332.176 198.644C331.484 199.682 330.879 200.892 330.359 202.276C329.84 203.573 329.193 205.001 328.414 206.556L326.597 210.32C326.252 211.183 325.776 211.962 325.171 212.654C324.566 213.346 324.09 213.995 323.745 214.6C323.398 214.945 323.051 215.292 322.706 215.637C322.446 215.984 322.143 216.329 321.798 216.676L321.28 217.712H320.501C320.501 217.886 320.414 218.059 320.241 218.233H319.723C319.549 218.233 319.462 218.578 319.462 219.27H318.944H318.684H318.166H317.776H317.258H316.479H316.219H315.442C315.096 219.27 314.922 219.096 314.922 218.751C314.922 218.404 314.835 218.233 314.664 218.233C314.317 218.233 314.059 218.146 313.885 217.973C313.712 217.799 313.452 217.712 313.107 217.712L311.679 215.119C311.679 214.774 311.636 214.556 311.55 214.471C311.463 214.384 311.247 214.037 310.902 213.432C310.902 213.087 310.858 212.74 310.771 212.395C310.684 212.049 310.642 211.704 310.642 211.357C310.295 211.357 310.124 211.012 310.124 210.32V209.8C309.95 209.8 309.863 209.628 309.863 209.281V208.763C309.863 207.898 309.863 207.379 309.863 207.206C309.863 207.119 309.69 206.903 309.345 206.556V205.519V205.001V199.164V195.92C309.69 194.882 309.863 193.758 309.863 192.548C309.863 191.251 309.95 190.083 310.124 189.044C310.469 186.882 310.684 184.851 310.771 182.949C310.858 180.96 311.074 178.927 311.421 176.851C312.112 168.894 313.194 160.895 314.664 152.853C315.009 148.789 315.442 144.724 315.961 140.66C316.479 136.595 317.084 132.53 317.776 128.466C318.123 124.401 318.555 120.25 319.073 116.013C319.678 111.775 320.154 107.624 320.501 103.56C320.846 99.3221 321.149 95.171 321.409 91.1065C321.667 86.9555 321.798 82.5882 321.798 78.0047C321.798 73.9402 321.667 70.0486 321.409 66.33C321.149 62.6114 320.759 59.4116 320.241 56.7308C319.896 55.174 319.507 53.7472 319.073 52.4498C318.642 51.0662 318.036 49.8555 317.258 48.8178C316.219 47.2612 314.664 45.6613 312.588 44.0181H310.902C310.902 43.6722 310.858 43.4993 310.771 43.4993C310.684 43.4993 310.642 43.4128 310.642 43.2399V42.9803H309.863H308.306H306.62H305.063H302.989C302.816 42.9803 302.6 43.1534 302.34 43.4993C302.08 43.8452 301.777 44.0181 301.432 44.0181C300.912 44.0181 300.351 44.1911 299.746 44.537H298.189C298.015 45.0558 297.8 45.3586 297.539 45.4451C297.281 45.5316 296.979 45.7477 296.632 46.0936C295.94 46.0936 295.377 46.4395 294.946 47.1314C294.772 47.1314 294.556 47.2179 294.298 47.3909C294.038 47.5638 293.735 47.6503 293.388 47.6503C292.87 48.1691 292.394 48.6449 291.962 49.0772C291.531 49.4231 290.968 49.8555 290.276 50.3743C289.758 50.7204 289.238 51.196 288.719 51.8014C288.287 52.4067 287.725 53.012 287.033 53.6175C285.044 55.6065 283.055 57.6388 281.066 59.7143C279.163 61.7899 277.347 64.168 275.618 66.8488C273.628 69.3567 271.812 72.0809 270.169 75.0212C268.613 77.875 267.056 80.8153 265.499 83.8422C263.943 86.523 262.343 89.3769 260.7 92.4037C259.143 95.3439 257.543 98.3275 255.9 101.354C254.516 104.035 253.089 106.846 251.619 109.786C250.236 112.64 248.766 115.321 247.209 117.829C245.825 120.856 244.441 123.623 243.058 126.131C241.761 128.552 240.377 131.104 238.907 133.784C237.523 136.292 236.096 138.714 234.626 141.049C233.242 143.297 231.859 145.502 230.475 147.664C227.794 152.766 225.286 157.177 222.951 160.895C222.259 161.76 221.654 162.755 221.135 163.88C220.616 164.917 220.011 165.869 219.319 166.734C218.973 167.771 218.497 168.765 217.892 169.717C217.373 170.581 216.768 171.706 216.076 173.09C213.914 176.636 211.925 179.921 210.109 182.949C208.293 185.975 206.477 188.699 204.661 191.12C203.104 194.147 201.764 196.612 200.639 198.514C199.429 200.332 198.391 201.974 197.526 203.444C196.834 204.309 196.359 204.914 196.099 205.259C195.753 205.606 195.407 206.038 195.061 206.556L194.542 207.077C194.197 208.46 193.851 208.46 193.505 207.077V205.519V205.259C193.505 205.088 193.548 204.914 193.635 204.741C193.721 204.567 193.764 204.309 193.764 203.962C193.937 203.789 194.456 202.189 195.321 199.164C196.013 197.607 196.791 195.487 197.656 192.806C198.434 190.126 199.429 186.927 200.639 183.207C201.85 180.008 203.191 176.462 204.661 172.571C206.217 168.679 207.904 164.614 209.72 160.376C210.066 158.993 210.541 157.783 211.147 156.744C211.752 155.62 212.228 154.323 212.574 152.853L214.26 149.74C214.433 148.875 214.649 148.27 214.909 147.924C215.168 147.491 215.471 146.843 215.817 145.978C217.546 141.222 219.924 136.465 222.951 131.709C224.162 128.682 225.33 125.915 226.454 123.407C227.664 120.899 229.005 118.348 230.475 115.753C231.859 113.245 233.329 110.694 234.885 108.1C236.529 105.419 238.128 102.824 239.685 100.317C241.242 97.6356 242.885 95.1279 244.614 92.7928C246.344 90.3713 248.16 87.9067 250.063 85.3988C251.792 83.2369 253.608 81.0315 255.511 78.7831C257.414 76.4482 259.316 74.0699 261.219 71.6485C263.208 69.6595 265.197 67.584 267.186 65.4219C269.261 63.1735 271.25 61.0115 273.153 58.936C275.142 56.428 277.131 54.2228 279.12 52.3202C281.195 50.3312 283.314 48.2556 285.476 46.0936C287.465 43.5858 289.54 41.4238 291.702 39.6076C293.864 37.7915 296.2 36.0619 298.707 34.4188C298.881 34.4188 299.097 34.246 299.357 33.9001C299.615 33.5541 299.918 33.3811 300.264 33.3811C300.609 33.3811 300.912 33.2946 301.172 33.1217C301.519 32.9486 301.864 32.8623 302.211 32.8623C302.556 32.1705 303.074 31.8245 303.766 31.8245C304.286 31.4786 304.978 31.3056 305.842 31.3056C306.362 30.6137 307.009 30.2246 307.788 30.1381L309.863 29.6191H310.124H310.642H311.421H313.885C315.096 29.6191 316.393 30.0084 317.776 30.7868C319.247 31.4786 320.673 32.3433 322.056 33.3811C323.269 34.9378 324.521 36.8836 325.818 39.2186C326.338 40.2563 326.899 41.4238 327.506 42.7209C328.111 43.9317 328.63 45.0558 329.062 46.0936C329.408 47.4773 329.753 48.7746 330.1 49.9852C330.445 51.1095 330.705 52.4932 330.879 54.1363C331.224 55.52 331.526 56.7739 331.786 57.8982C332.047 58.936 332.262 60.1466 332.434 61.5303C332.781 64.2113 333.083 66.9353 333.344 69.7027C333.602 72.3835 333.733 74.978 333.733 77.486C333.904 80.1668 333.991 82.7179 333.991 85.1394C333.991 87.4743 333.991 89.8957 333.991 92.4037C333.818 94.9116 333.733 97.2897 333.733 99.5383C333.733 101.787 333.559 104.165 333.213 106.673C333.041 111.429 332.781 116.186 332.434 120.942C332.089 125.612 331.742 130.239 331.397 134.822C331.05 139.06 330.576 143.384 329.969 147.794C329.364 152.119 328.846 156.312 328.414 160.376C327.896 163.922 327.42 167.295 326.986 170.496C326.554 173.695 326.165 176.851 325.818 179.964C326.165 178.235 326.77 177.025 327.635 176.333C328.846 173.824 329.969 171.577 331.008 169.586C332.131 167.511 333.344 165.479 334.641 163.491C336.629 159.771 338.576 156.312 340.478 153.113C342.38 149.826 344.153 146.929 345.797 144.421C347.352 141.395 348.78 138.973 350.077 137.157C351.461 135.255 352.671 133.611 353.709 132.228C354.228 131.882 354.704 131.536 355.136 131.19C355.569 130.758 355.957 130.541 356.303 130.541H356.953H357.211H357.73Z" fill="black" fill-opacity="0.86"/>
</svg>
